<svg width="173" height="20" viewBox="0 0 173 20" fill="none" xmlns="http://www.w3.org/2000/svg">
<g clip-path="url(#clip0_579_1563)">
<path d="M141.07 19.2906L134.38 13.2606V19.2906H132.66V0.740625H134.38V11.2906L140.59 5.90063H143.11L135.76 12.2806L143.54 19.2906H141.07ZM167.25 10.2306C167.58 10.6406 168.27 11.1106 169.32 11.6506C170.6 12.3206 171.48 12.9606 171.94 13.5806C172.39 14.2106 172.62 14.9106 172.62 15.6906C172.62 16.7906 172.23 17.7306 171.46 18.4906C170.68 19.2506 169.72 19.6406 168.56 19.6406C167.79 19.6406 167.05 19.4706 166.35 19.1406C165.64 18.8106 165.07 18.3506 164.61 17.7606L165.69 16.5306C166.57 17.5306 167.51 18.0206 168.49 18.0206C169.18 18.0206 169.77 17.8006 170.26 17.3506C170.75 16.9006 170.99 16.3806 170.99 15.7806C170.99 15.2806 170.83 14.8406 170.51 14.4606C170.19 14.0806 169.46 13.6006 168.34 13.0306C167.13 12.4106 166.31 11.7906 165.87 11.1906C165.43 10.5906 165.21 9.89062 165.21 9.12062C165.21 8.11062 165.56 7.26063 166.25 6.59063C166.95 5.92063 167.83 5.58063 168.89 5.58063C170.13 5.58063 171.37 6.17063 172.62 7.36063L171.51 8.50063C170.58 7.60063 169.68 7.15063 168.79 7.15063C168.23 7.15063 167.74 7.34062 167.34 7.71062C166.94 8.08062 166.74 8.51062 166.74 9.01062C166.75 9.42062 166.92 9.84062 167.25 10.2306ZM144.47 5.90063H146.19V19.3006H144.47V5.90063ZM146.32 2.82063C146.19 2.95363 146.034 3.05928 145.862 3.1314C145.691 3.20352 145.506 3.24065 145.32 3.24063C144.94 3.24063 144.61 3.10063 144.34 2.82063C144.206 2.69117 144.101 2.53553 144.03 2.36345C143.96 2.19136 143.926 2.00656 143.93 1.82063C143.93 1.43063 144.07 1.09063 144.34 0.810625C144.62 0.530625 144.94 0.390625 145.32 0.390625C145.71 0.390625 146.04 0.530625 146.32 0.810625C146.6 1.09063 146.73 1.42063 146.73 1.82063C146.73 2.21063 146.6 2.54063 146.32 2.82063ZM160.84 0.740625V8.35062C160.17 7.41062 159.39 6.72063 158.5 6.25063C157.61 5.78063 156.62 5.55062 155.52 5.55062C153.62 5.55062 152 6.24063 150.64 7.61063C149.29 8.98063 148.61 10.6306 148.61 12.5606C148.61 14.5306 149.28 16.2006 150.62 17.5706C151.96 18.9506 153.58 19.6306 155.47 19.6306C156.53 19.6306 157.51 19.4106 158.41 18.9706C159.31 18.5306 160.11 17.8706 160.83 16.9906V19.2906H162.55V0.740625H160.84ZM160.25 15.4206C159.8 16.2306 159.15 16.8806 158.31 17.3506C157.47 17.8306 156.58 18.0606 155.64 18.0606C154.71 18.0606 153.84 17.8206 153.02 17.3406C152.202 16.8558 151.531 16.1575 151.08 15.3206C150.6 14.4606 150.36 13.5606 150.36 12.6106C150.36 11.6606 150.6 10.7606 151.08 9.90063C151.56 9.05063 152.2 8.38063 153.01 7.91063C153.82 7.44063 154.7 7.20063 155.66 7.20063C157.14 7.20063 158.4 7.72062 159.41 8.76062C160.43 9.80062 160.94 11.1006 160.94 12.6506C160.93 13.6906 160.7 14.6006 160.25 15.4206ZM0.389893 5.90063H2.18989L6.29989 15.6306L10.5399 5.90063H10.8799L15.1799 15.6306L19.3199 5.90063H21.0899L15.3499 19.3006H14.9999L10.7299 9.71062L6.49989 19.2906H6.10989L0.389893 5.90063ZM33.4599 14.8606L34.9099 15.6206C34.4299 16.5506 33.8799 17.3106 33.2499 17.8806C32.6199 18.4506 31.9199 18.8906 31.1399 19.1906C30.3599 19.4906 29.4699 19.6406 28.4799 19.6406C26.2899 19.6406 24.5699 18.9206 23.3399 17.4906C22.0999 16.0606 21.4799 14.4406 21.4799 12.6306C21.4799 10.9306 21.9999 9.42063 23.0499 8.09063C24.3699 6.40063 26.1499 5.56063 28.3699 5.56063C30.6599 5.56063 32.4899 6.43063 33.8499 8.16063C34.8199 9.39062 35.3099 10.9106 35.3299 12.7406H23.2299C23.2599 14.3006 23.7599 15.5706 24.7299 16.5706C25.6999 17.5706 26.8999 18.0606 28.3199 18.0606C29.0099 18.0606 29.6699 17.9406 30.3199 17.7006C30.9699 17.4606 31.5199 17.1506 31.9699 16.7506C32.4299 16.3706 32.9299 15.7306 33.4599 14.8606ZM33.4499 11.2506C33.2199 10.3306 32.8799 9.60063 32.4399 9.05062C31.9999 8.50062 31.4099 8.05063 30.6899 7.72063C29.9599 7.38063 29.1999 7.22063 28.3999 7.22063C27.0799 7.22063 25.9399 7.64063 24.9899 8.49063C24.2999 9.11063 23.7699 10.0306 23.4099 11.2606H33.4499V11.2506ZM44.6899 7.33063L43.5799 8.47063C42.6499 7.57063 41.7499 7.12062 40.8599 7.12062C40.2999 7.12062 39.8099 7.31063 39.4099 7.68063C39.0099 8.05063 38.8099 8.48063 38.8099 8.98063C38.8099 9.42062 38.9699 9.83063 39.3099 10.2306C39.6399 10.6406 40.3299 11.1106 41.3799 11.6506C42.6699 12.3206 43.5399 12.9606 43.9999 13.5806C44.4499 14.2106 44.6799 14.9106 44.6799 15.6906C44.6799 16.7906 44.2899 17.7306 43.5199 18.4906C42.7499 19.2506 41.7799 19.6406 40.6199 19.6406C39.8499 19.6406 39.1099 19.4706 38.4099 19.1406C37.7099 18.8106 37.1299 18.3506 36.6699 17.7606L37.7499 16.5306C38.6299 17.5306 39.5699 18.0206 40.5599 18.0206C41.2499 18.0206 41.8399 17.8006 42.3199 17.3506C42.8099 16.9006 43.0499 16.3806 43.0499 15.7806C43.0499 15.2806 42.8899 14.8406 42.5699 14.4606C42.2499 14.0806 41.5199 13.6006 40.3999 13.0306C39.1899 12.4106 38.3699 11.7906 37.9299 11.1906C37.4999 10.5906 37.2799 9.89062 37.2799 9.12062C37.2799 8.11062 37.6299 7.26063 38.3199 6.59063C39.0199 5.92063 39.8999 5.58063 40.9599 5.58063C42.1899 5.55063 43.4399 6.15063 44.6899 7.33063ZM48.6799 0.950626H50.3999V5.90063H53.1199V7.39062H50.3999V19.3006H48.6799V7.38063H46.3299V5.90063H48.6799V0.950626ZM67.4299 8.63063L66.0699 9.48063C64.8899 7.92063 63.2799 7.13063 61.2399 7.13063C59.6099 7.13063 58.2499 7.65062 57.1799 8.71062C56.0999 9.77062 55.5599 11.0506 55.5599 12.5606C55.5599 13.5406 55.8099 14.4606 56.2999 15.3306C56.7899 16.2006 57.4699 16.8706 58.3399 17.3506C59.2099 17.8306 60.1699 18.0706 61.2499 18.0706C63.2199 18.0706 64.8199 17.2906 66.0699 15.7206L67.4299 16.6206C66.7899 17.5806 65.9299 18.3206 64.8499 18.8506C63.7699 19.3806 62.5399 19.6406 61.1599 19.6406C59.0399 19.6406 57.2799 18.9706 55.8899 17.6206C54.4899 16.2706 53.7999 14.6406 53.7999 12.7106C53.7999 11.4106 54.1299 10.2106 54.7799 9.10062C55.4209 8.00095 56.3514 7.0982 57.4699 6.49063C58.6099 5.87063 59.8799 5.56063 61.2999 5.56063C62.1899 5.56063 63.0399 5.69062 63.8699 5.96062C64.6899 6.22062 65.3899 6.57063 65.9699 7.00063C66.5299 7.42063 67.0199 7.97063 67.4299 8.63063ZM76.5099 5.55062C78.5699 5.55062 80.2799 6.30063 81.6399 7.79063C82.8699 9.16063 83.4899 10.7706 83.4899 12.6306C83.4899 14.5006 82.8399 16.1306 81.5399 17.5306C80.2399 18.9306 78.5599 19.6306 76.5199 19.6306C74.4599 19.6306 72.7899 18.9306 71.4799 17.5306C70.1799 16.1306 69.5299 14.5006 69.5299 12.6306C69.5299 10.7706 70.1499 9.17062 71.3799 7.80062C72.7199 6.30062 74.4399 5.55062 76.5099 5.55062ZM76.4999 7.24063C75.0699 7.24063 73.8399 7.77063 72.8099 8.83063C71.7799 9.89063 71.2699 11.1706 71.2699 12.6706C71.2699 13.6406 71.4999 14.5406 71.9699 15.3806C72.4399 16.2206 73.0699 16.8606 73.8699 17.3206C74.6699 17.7706 75.5499 18.0006 76.4999 18.0006C77.4599 18.0006 78.3299 17.7706 79.1299 17.3206C79.9299 16.8706 80.5599 16.2206 81.0299 15.3806C81.4999 14.5406 81.7299 13.6406 81.7299 12.6706C81.7299 11.1706 81.2099 9.89063 80.1799 8.83063C79.1599 7.77063 77.9299 7.24063 76.4999 7.24063ZM99.4299 5.90063V19.3006H97.7099V17.0006C96.9899 17.8806 96.1799 18.5406 95.2899 18.9806C94.3899 19.4206 93.4099 19.6406 92.3399 19.6406C90.4499 19.6406 88.8299 18.9506 87.4999 17.5806C86.1599 16.2106 85.4899 14.5406 85.4899 12.5706C85.4899 10.6406 86.1599 8.99062 87.5199 7.62062C88.8699 6.25062 90.4999 5.56063 92.3999 5.56063C93.4999 5.56063 94.4899 5.79062 95.3799 6.26062C96.2699 6.73062 97.0499 7.43063 97.7199 8.36063V5.90063H99.4299ZM92.5199 7.21062C91.5699 7.21062 90.6799 7.45062 89.8799 7.92062C89.0699 8.39062 88.4299 9.06063 87.9499 9.91063C87.4699 10.7606 87.2399 11.6706 87.2399 12.6206C87.2399 13.5706 87.4799 14.4706 87.9599 15.3306C88.4113 16.1675 89.0819 16.8658 89.8999 17.3506C90.7099 17.8306 91.5799 18.0706 92.5099 18.0706C93.4499 18.0706 94.3399 17.8306 95.1799 17.3606C96.0199 16.8806 96.6699 16.2406 97.1199 15.4306C97.5699 14.6206 97.7999 13.7006 97.7999 12.6806C97.7999 11.1306 97.2899 9.83063 96.2799 8.79063C95.2599 7.73063 94.0099 7.21062 92.5199 7.21062ZM109.47 7.33063L108.36 8.47063C107.44 7.57063 106.53 7.12062 105.65 7.12062C105.09 7.12062 104.6 7.31063 104.2 7.68063C103.8 8.05063 103.6 8.48063 103.6 8.98063C103.6 9.42062 103.77 9.83063 104.1 10.2306C104.43 10.6406 105.12 11.1106 106.18 11.6506C107.46 12.3206 108.34 12.9606 108.8 13.5806C109.25 14.2106 109.48 14.9106 109.48 15.6906C109.48 16.7906 109.09 17.7306 108.32 18.4906C107.55 19.2506 106.58 19.6406 105.42 19.6406C104.65 19.6406 103.91 19.4706 103.21 19.1406C102.51 18.8106 101.93 18.3506 101.47 17.7606L102.55 16.5306C103.43 17.5306 104.37 18.0206 105.35 18.0206C106.04 18.0206 106.63 17.8006 107.12 17.3506C107.61 16.9006 107.85 16.3806 107.85 15.7806C107.85 15.2806 107.69 14.8406 107.37 14.4606C107.05 14.0806 106.33 13.6006 105.2 13.0306C103.99 12.4106 103.17 11.7906 102.73 11.1906C102.29 10.5906 102.07 9.89062 102.07 9.12062C102.07 8.11062 102.42 7.26063 103.11 6.59063C103.81 5.92063 104.69 5.58063 105.75 5.58063C106.98 5.55063 108.22 6.15063 109.47 7.33063ZM113.46 0.950626H115.18V5.90063H117.9V7.39062H115.18V19.3006H113.46V7.38063H111.11V5.90063H113.46V0.950626Z" fill="black"/>
<path d="M119.7 12.8419C119.7 10.2619 121.79 8.17188 124.37 8.17188V17.5019C123.757 17.5032 123.15 17.3836 122.584 17.15C122.017 16.9164 121.502 16.5734 121.068 16.1405C120.635 15.7077 120.29 15.1935 120.056 14.6275C119.821 14.0615 119.7 13.4547 119.7 12.8419Z" fill="#00A0AF"/>
<path d="M129.04 12.8397C129.04 15.4197 126.95 17.5097 124.37 17.5097V8.17972C124.983 8.17761 125.591 8.29663 126.157 8.52995C126.724 8.76326 127.24 9.10628 127.673 9.53929C128.107 9.9723 128.452 10.4868 128.686 11.0532C128.921 11.6195 129.041 12.2267 129.04 12.8397Z" fill="black"/>
</g>
<defs>
<clipPath id="clip0_579_1563">
<rect width="173" height="20" fill="white"/>
</clipPath>
</defs>
</svg>
